<?xml version="1.0" encoding="utf-8"?>
<!-- Generator: Adobe Illustrator 26.0.2, SVG Export Plug-In . SVG Version: 6.00 Build 0)  -->
<svg version="1.1" id="Warstwa_1" xmlns="http://www.w3.org/2000/svg" xmlns:xlink="http://www.w3.org/1999/xlink" x="0px" y="0px"
	 viewBox="0 0 430 430" style="enable-background:new 0 0 430 430;" xml:space="preserve">
<style type="text/css">
	.st0{fill:url(#SVGID_1_);}
	.st1{fill:url(#SVGID_00000065787264049610980080000005134870453515167647_);}
	.st2{fill:url(#SVGID_00000141432862777774113250000000209735668915076742_);}
	.st3{fill:url(#SVGID_00000163041739472621632300000005123154910040712365_);}
	.st4{fill:url(#SVGID_00000070799855476326902070000011531024132424268199_);}
	.st5{fill:url(#SVGID_00000054255980672649244710000000134987107503308185_);}
	.st6{fill:url(#SVGID_00000007419438478428807490000007094597678506600616_);}
	.st7{fill:url(#SVGID_00000080208957542748105370000013582549387234196630_);}
	.st8{fill:url(#SVGID_00000117669658063899145450000012586609721037146500_);}
	.st9{fill:url(#SVGID_00000181805036387781740900000017350244479616629413_);}
	.st10{fill:url(#SVGID_00000040550463449259866430000002995390282948880555_);}
	.st11{fill:url(#SVGID_00000136404721878805769830000016708598062316420736_);}
	.st12{fill:url(#SVGID_00000123401026824241155740000017853361147225743802_);}
	.st13{fill:url(#SVGID_00000161619224432456916860000016574940714689658501_);}
	.st14{fill:url(#SVGID_00000002373358501231007680000003053944714917180564_);}
	.st15{fill:url(#SVGID_00000147179605346643032470000006976125229318483857_);}
	.st16{fill:url(#SVGID_00000086675714269452245970000007222238048040342174_);}
	.st17{fill:url(#SVGID_00000020376925263750535220000007253733849139945373_);}
	.st18{fill:url(#SVGID_00000070079583490798699750000010508944978849391532_);}
	.st19{fill:url(#SVGID_00000032629102256925120720000013334588989434523797_);}
	.st20{fill:url(#SVGID_00000150084742715425491080000016371080889674520721_);}
	.st21{fill:url(#SVGID_00000132780190328232538460000014147871618472259249_);}
	.st22{fill:url(#SVGID_00000050634190781065087700000009660685802902249103_);}
	.st23{fill:url(#SVGID_00000093859459749343144130000010919025818352464265_);}
	.st24{fill:url(#SVGID_00000149377753441701108710000002449513730152407203_);}
	.st25{fill:url(#SVGID_00000116201447060346445040000002632958530496581523_);}
	.st26{fill:url(#SVGID_00000059297014908208437740000017005573160760712095_);}
	.st27{fill:url(#SVGID_00000039836679823459162340000000229901752047019943_);}
	.st28{fill:url(#SVGID_00000041983906964112537640000009906107131656530567_);}
	.st29{fill:url(#SVGID_00000146470214545675882680000010710326327178184612_);}
	.st30{fill:url(#SVGID_00000002378545557734109550000006709664466670824883_);}
	.st31{fill:url(#SVGID_00000066492865068035674470000014831321331568896159_);}
</style>
<linearGradient id="SVGID_1_" gradientUnits="userSpaceOnUse" x1="66.1913" y1="39.8018" x2="356.0626" y2="329.673">
	<stop  offset="0" style="stop-color:#cb5eee"/>
	<stop  offset="1" style="stop-color:#4be1ec"/>
</linearGradient>
<path class="st0" d="M392.46,106.52c-1.42-1.89-3.6-2.97-5.97-2.97c-1.28,0-18.89-0.01-39.31-0.01l-243.27-0.09
	c-5.17-21.03-20.57-36.9-36.54-36.9H41.93c-3.31,0-6,2.69-6,6c0,3.31,2.69,6,6,6h25.44c11.04,0,22.79,14.42,25.66,31.48
	l27.32,162.46c-0.97,0.38-1.96,0.82-2.96,1.35c-1.9,0.78-3.92,2.23-5.92,4.72c0,0,0,0-0.01,0.01c-4.77,5.92-6.03,13.18-3.27,18.94
	c1.56,3.27,4.81,6.97,11.5,8.97c-5.75,6.06-9.3,14.23-9.3,23.22c0,18.61,15.14,33.75,33.75,33.75s33.75-15.14,33.75-33.75
	c0-8.28-3-15.87-7.97-21.75h112.63c-4.97,5.88-7.97,13.47-7.97,21.75c0,18.61,15.14,33.75,33.75,33.75s33.75-15.14,33.75-33.75
	s-15.14-33.75-33.75-33.75c-0.41,0-0.82,0.02-1.23,0.03c-0.2-0.02-0.41-0.03-0.62-0.03H131.19c-7.7,0-11.34-1.87-12.17-3.62
	c-0.71-1.49,0.02-4.05,1.79-6.24c0.2-0.25,0.45-0.48,0.72-0.71c1.1,0.14,2.22-0.02,3.27-0.51c2.6-1.09,19.47-4.12,41.06-6.58
	l145.7-16.6c22.84-2.6,45.75-21.94,52.15-44.02l29.96-103.34C394.49,111.48,394.05,108.64,392.46,106.52z M165.89,329.7
	c0,11.99-9.76,21.75-21.75,21.75s-21.75-9.76-21.75-21.75s9.76-21.75,21.75-21.75S165.89,317.71,165.89,329.7z M330.08,329.7
	c0,11.99-9.76,21.75-21.75,21.75s-21.75-9.76-21.75-21.75s9.76-21.75,21.75-21.75S330.08,317.71,330.08,329.7z M352.18,214.33
	c-4.98,17.18-24.21,33.41-41.98,35.43l-145.7,16.6c-8.33,0.95-22,2.72-32.25,4.56L106.1,115.45l241.07,0.09
	c13.97,0,26.63,0.01,33.64,0.01L352.18,214.33z"/>
</svg>
